<?xml version="1.0" encoding="utf-8"?>
<!-- Generator: Adobe Illustrator 16.0.0, SVG Export Plug-In . SVG Version: 6.00 Build 0)  -->
<!DOCTYPE svg PUBLIC "-//W3C//DTD SVG 1.1//EN" "http://www.w3.org/Graphics/SVG/1.1/DTD/svg11.dtd">
<svg version="1.1" id="Layer_1" xmlns="http://www.w3.org/2000/svg" xmlns:xlink="http://www.w3.org/1999/xlink" x="0px" y="0px"
	 width="1305px" height="285px" viewBox="0 0 1305 285" enable-background="new 0 0 1305 285" xml:space="preserve">
<g>
	<path fill="#42B549" d="M1087.4,68.823h30.486V217.1h-2.311c-15.701,0-28.637-12.932-28.637-28.637V68.823H1087.4z
		 M828.725,219.875c-19.4,4.154-38.801,0.92-57.74-9.703c-18.479-10.162-30.486-25.404-36.49-45.27
		c-12.475-40.65,12.934-85.916,54.045-96.541c20.322-5.542,39.723-2.77,58.203,7.393c30.486,17.09,42.033,43.419,39.723,77.602
		l-123.334-0.461c1.848,13.857,10.623,24.943,22.637,31.412c12.471,6.928,23.557,8.311,34.18,5.078
		c11.549-3.693,21.252-13.396,28.639-22.172l24.943,18.479C863.369,204.629,849.514,215.713,828.725,219.875z M852.279,125.18
		c-3.693-12.011-8.77-18.018-19.861-24.021c-26.326-14.782-52.66-2.311-64.668,24.021H852.279z M1271.707,133.955
		c0-12.011-4.615-21.708-13.857-29.101c-8.314-6.468-18.473-9.7-31.408-9.7c-27.715,0-45.732,21.711-45.732,48.502
		c0,25.867,18.939,47.115,45.271,47.115c18.473,0,28.176-10.623,38.801-24.02v38.338c-5.543,4.158-11.553,8.316-17.557,11.088
		c-6.465,2.771-14.318,4.156-23.555,4.156c-44.344,0-73.447-36.492-73.447-78.989c0-21.708,6.932-39.726,20.328-53.58
		c14.318-14.782,33.258-22.173,56.352-22.173c43.883,0,75.291,24.944,75.291,70.671V217.1h-2.311
		c-15.701,0-28.637-12.932-28.637-28.637v-54.508H1271.707z M1116.043,51.271c-3.232,3.695-7.854,5.081-13.396,5.081
		c-10.625,0-18.018-7.853-18.018-18.015c0-10.625,7.393-18.015,18.018-18.015c10.164,0,18.012,7.39,18.012,18.015
		C1120.658,43.417,1119.275,48.037,1116.043,51.271z M1029.66,197.703c-13.857,15.242-32.33,22.631-54.041,22.631
		c-23.1,0-42.039-7.852-56.357-24.02c-13.396-15.24-20.322-34.184-20.322-56.816c0-40.188,30.947-73.446,71.598-73.446
		c15.701,0,29.564,3.234,42.955,11.087v33.258c-11.086-7.392-24.943-14.783-38.801-14.783c-28.637,0-45.729,19.862-45.729,47.577
		c0,27.719,18.014,48.043,46.189,48.043c12.936,0,23.098-4.621,31.875-14.32c8.313-9.701,12.469-23.559,12.469-42.498V30.946
		c0-15.705,12.936-28.64,28.643-28.64h2.311v136.731C1050.449,163.057,1043.518,182.457,1029.66,197.703z M697.541,199.086
		c-14.324,14.32-30.951,21.709-50.815,21.709c-15.704,0-29.098-3.23-42.957-11.084v-32.797
		c11.083,7.393,24.942,14.781,38.801,14.781c28.637,0,45.73-19.861,45.73-47.578c0-27.715-17.553-48.041-46.193-48.041
		c-12.934,0-23.095,4.621-31.412,13.857c-8.776,10.164-12.932,24.019-12.932,42.961v129.799h-2.311
		c-15.706,0-28.64-12.932-28.64-28.637V147.813c0-44.807,27.716-81.3,74.832-81.3c23.56,0,42.494,7.855,56.818,24.023
		c13.396,14.779,20.324,34.18,20.324,56.814C718.787,167.213,711.859,184.768,697.541,199.086z"/>
	<path fill="#42B549" d="M203.742,108.548c-8.314-8.775-19.4-13.394-32.333-13.394c-28.178,0-45.27,20.786-45.27,48.037
		c0,26.797,17.091,48.043,45.27,48.043c27.715,0,45.268-20.789,45.268-48.043C216.215,128.873,212.058,117.326,203.742,108.548z
		 M505.378,108.548c-8.314-8.775-19.4-13.394-32.334-13.394c-28.178,0-45.268,20.786-45.268,48.037
		c0,26.797,17.09,48.043,45.268,48.043c27.716,0,45.267-20.789,45.267-48.043C517.852,128.873,513.694,117.326,505.378,108.548z
		 M527.089,198.625c-15.244,14.32-33.259,21.709-54.506,21.709c-20.788,0-39.263-7.389-54.045-21.709
		c-15.242-14.783-22.635-33.258-22.635-55.434c0-43.419,33.259-77.139,77.141-77.139c20.786,0,39.264,7.391,54.506,22.17
		c15.243,14.783,23.097,33.261,23.097,55.434C550.184,165.367,542.334,183.842,527.089,198.625z M369.111,104.854
		c-4.62,7.393-7.853,12.933-10.624,16.165c-2.773,3.696-5.545,6.468-7.852,8.314c21.247,6.929,29.1,21.713,29.1,43.422V217.1h-2.31
		c-15.706,0-28.64-12.932-28.64-28.637v-12.934c0-14.32-6.466-24.023-21.248-24.023h-27.714V217.1h-2.311
		c-15.706,0-28.64-12.932-28.64-28.637V30.946c0-15.705,12.935-28.64,28.64-28.64h2.311v120.103h9.236
		c10.165,0,16.631-3.236,20.326-9.703l25.868-43.419h35.107L369.111,104.854z M225.914,198.625
		c-15.242,14.32-33.258,21.709-54.505,21.709c-20.788,0-39.264-7.389-54.045-21.709c-15.244-14.783-22.635-33.258-22.635-55.434
		c0-43.419,33.258-77.139,77.141-77.139c20.786,0,39.265,7.391,54.508,22.17c15.243,14.783,23.095,33.261,23.095,55.434
		C248.548,165.367,241.159,183.842,225.914,198.625z M47.614,217.564c-30.025,0-44.808-20.326-44.808-48.963V60.509
		c0-15.706,12.934-28.639,28.64-28.639h2.31v36.954h51.736v29.563H33.755v73.447c0,12.473,5.542,16.166,17.552,16.166h34.184v29.564
		H47.614z"/>
</g>
</svg>
